<?xml version="1.0" encoding="UTF-8" standalone="no"?>
<svg
   xmlns:dc="http://purl.org/dc/elements/1.1/"
   xmlns:cc="http://creativecommons.org/ns#"
   xmlns:rdf="http://www.w3.org/1999/02/22-rdf-syntax-ns#"
   xmlns:svg="http://www.w3.org/2000/svg"
   xmlns="http://www.w3.org/2000/svg"
   xmlns:sodipodi="http://sodipodi.sourceforge.net/DTD/sodipodi-0.dtd"
   xmlns:inkscape="http://www.inkscape.org/namespaces/inkscape"
   inkscape:version="1.0rc1 (09960d6f05, 2020-04-09)"
   sodipodi:docname="folder-script.svg"
   id="svg24"
   version="1"
   height="48"
   width="48">
  <metadata
     id="metadata30">
    <rdf:RDF>
      <cc:Work
         rdf:about="">
        <dc:format>image/svg+xml</dc:format>
        <dc:type
           rdf:resource="http://purl.org/dc/dcmitype/StillImage" />
      </cc:Work>
    </rdf:RDF>
  </metadata>
  <defs
     id="defs28" />
  <sodipodi:namedview
     inkscape:current-layer="svg24"
     inkscape:window-maximized="1"
     inkscape:window-y="22"
     inkscape:window-x="0"
     inkscape:cy="24"
     inkscape:cx="24"
     inkscape:zoom="11.370465"
     showgrid="false"
     id="namedview26"
     inkscape:window-height="723"
     inkscape:window-width="1366"
     inkscape:pageshadow="2"
     inkscape:pageopacity="0"
     guidetolerance="10"
     gridtolerance="10"
     objecttolerance="10"
     borderopacity="1"
     bordercolor="#666666"
     pagecolor="#ffffff" />
  <rect
     id="rect2"
     ry="2"
     rx="2"
     y="17"
     x="4"
     height="26"
     width="40"
     style="opacity:0.2" />
  <path
     id="path4"
     d="M 4,34 C 4,35.108 4.892,36 6,36 H 42 C 43.108,36 44,35.108 44,34 V 12 C 44,10.892 43.108,10 42,10 H 22 V 8 C 22,6.892 21.108,6 20,6 H 6 C 4.892,6 4,6.892 4,8"
     style="fill:#4c566a" />
  <rect
     id="rect6"
     ry="2"
     rx="2"
     y="15"
     x="4"
     height="26"
     width="40"
     style="opacity:0.2" />
  <rect
     id="rect8"
     ry="2"
     rx="2"
     y="13"
     x="6"
     height="16"
     width="36"
     style="fill:#9EA2AA" />
  <rect
     id="rect10"
     ry="2"
     rx="2"
     y="16"
     x="4"
     height="26"
     width="40"
     style="fill:#3F4757" />
  <path
     id="path12"
     d="M 6,6 C 4.892,6 4,6.892 4,8 V 9 C 4,7.892 4.892,7 6,7 H 20 C 21.108,7 22,7.892 22,9 V 8 C 22,6.892 21.108,6 20,6 Z M 22,10 V 11 H 42 C 43.108,11 44,11.892 44,13 V 12 C 44,10.892 43.108,10 42,10 Z"
     style="opacity:0.1;fill:#ffffff" />
  <path
     id="path14"
     d="M 16,21 V 37 H 32 V 21 Z"
     style="fill:#9ea2aa;fill-opacity:1" />
  <g
     id="g22"
     style="fill:#3F4757">
    <path
       id="path16"
       d="M 24,29 H 28 V 30 H 24 Z"
       style="fill:#3F4757" />
    <rect
       id="rect18"
       y="23"
       x="20"
       height="7"
       width="1"
       style="fill:#3F4757" />
    <path
       id="path20"
       d="M 19.5,24 C 18.67,24 18,24.67 18,25.5 18,26.33 18.67,27 19.5,27 H 21 21.5 C 21.78,27 22,27.22 22,27.5 22,27.78 21.78,28.01 21.5,28 H 21 19.5 18.09 C 18.3,28.58 18.85,29 19.5,29 H 21 21.5 C 22.33,29 23,28.33 23,27.5 23,26.67 22.33,26 21.5,26 H 21 19.5 C 19.22,26 19,25.78 19,25.5 19,25.22 19.22,25 19.5,25 H 21 21.5 22.91 C 22.7,24.42 22.15,24 21.5,24 H 21 Z"
       style="fill:#3F4757" />
  </g>
</svg>
