<?xml version="1.0" encoding="UTF-8" standalone="no"?>
<svg
   xmlns:dc="http://purl.org/dc/elements/1.1/"
   xmlns:cc="http://creativecommons.org/ns#"
   xmlns:rdf="http://www.w3.org/1999/02/22-rdf-syntax-ns#"
   xmlns:svg="http://www.w3.org/2000/svg"
   xmlns="http://www.w3.org/2000/svg"
   xmlns:sodipodi="http://sodipodi.sourceforge.net/DTD/sodipodi-0.dtd"
   xmlns:inkscape="http://www.inkscape.org/namespaces/inkscape"
   inkscape:version="1.0rc1 (09960d6f05, 2020-04-09)"
   sodipodi:docname="folder-yandex-disk.svg"
   id="svg16"
   version="1"
   height="48"
   width="48">
  <metadata
     id="metadata22">
    <rdf:RDF>
      <cc:Work
         rdf:about="">
        <dc:format>image/svg+xml</dc:format>
        <dc:type
           rdf:resource="http://purl.org/dc/dcmitype/StillImage" />
      </cc:Work>
    </rdf:RDF>
  </metadata>
  <defs
     id="defs20" />
  <sodipodi:namedview
     inkscape:current-layer="svg16"
     inkscape:window-maximized="1"
     inkscape:window-y="22"
     inkscape:window-x="0"
     inkscape:cy="24"
     inkscape:cx="24"
     inkscape:zoom="11.370465"
     showgrid="false"
     id="namedview18"
     inkscape:window-height="723"
     inkscape:window-width="1366"
     inkscape:pageshadow="2"
     inkscape:pageopacity="0"
     guidetolerance="10"
     gridtolerance="10"
     objecttolerance="10"
     borderopacity="1"
     bordercolor="#666666"
     pagecolor="#ffffff" />
  <rect
     id="rect2"
     ry="2"
     rx="2"
     y="17"
     x="4"
     height="26"
     width="40"
     style="opacity:0.2" />
  <path
     id="path4"
     d="M 4,34 C 4,35.108 4.892,36 6,36 H 42 C 43.108,36 44,35.108 44,34 V 12 C 44,10.892 43.108,10 42,10 H 22 V 8 C 22,6.892 21.108,6 20,6 H 6 C 4.892,6 4,6.892 4,8"
     style="fill:#4c566a" />
  <rect
     id="rect6"
     ry="2"
     rx="2"
     y="15"
     x="4"
     height="26"
     width="40"
     style="opacity:0.2" />
  <rect
     id="rect8"
     ry="2"
     rx="2"
     y="13"
     x="6"
     height="16"
     width="36"
     style="fill:#9EA2AA" />
  <rect
     id="rect10"
     ry="2"
     rx="2"
     y="16"
     x="4"
     height="26"
     width="40"
     style="fill:#3F4757" />
  <path
     id="path12"
     d="M 6,6 C 4.892,6 4,6.892 4,8 V 9 C 4,7.892 4.892,7 6,7 H 20 C 21.108,7 22,7.892 22,9 V 8 C 22,6.892 21.108,6 20,6 Z M 22,10 V 11 H 42 C 43.108,11 44,11.892 44,13 V 12 C 44,10.892 43.108,10 42,10 Z"
     style="opacity:0.1;fill:#ffffff" />
  <path
     id="path14"
     d="M 23.092,23.047 C 19.536,23.047 20.363,26.295 18.543,27.273 18.48,27.309 18.445,27.342 18.389,27.377 19.589,26.662 21.069,26.065 22.641,25.66 23.972,25.317 25.321,25.125 26.566,25.101 26.598,25.101 26.63,25.101 26.662,25.101 25.462,24.76 25.33,23.047 23.092,23.047 Z M 26.967,26.002 C 25.722,26.026 24.372,26.218 23.041,26.56 18.655,27.689 15.528,30.144 16.059,32.043 16.364,33.128 17.836,33.844 20.029,33.974 20.028,33.966 20.026,33.959 20.025,33.951 19.907,32.924 20.558,32.031 21.322,31.425 22.086,30.82 23.068,30.38 24.172,30.146 25.275,29.912 26.308,29.923 27.172,30.183 27.984,30.428 28.748,30.961 28.935,31.877 31.134,30.644 32.274,29.158 31.943,27.957 31.593,26.699 29.685,25.949 26.967,26.002 Z M 25.662,31 A 1.8586,3.577 76.001 0 0 24.285,31.142 1.8586,3.577 76.001 0 0 21.006,33.742 1.8586,3.577 76.001 0 0 24.715,34.857 1.8586,3.577 76.001 0 0 27.992,32.258 1.8586,3.577 76.001 0 0 25.662,31 Z"
     style="fill:#9ea2aa;fill-opacity:1" />
</svg>
