<?xml version="1.0" encoding="UTF-8" standalone="no"?>
<svg
   xmlns:dc="http://purl.org/dc/elements/1.1/"
   xmlns:cc="http://creativecommons.org/ns#"
   xmlns:rdf="http://www.w3.org/1999/02/22-rdf-syntax-ns#"
   xmlns:svg="http://www.w3.org/2000/svg"
   xmlns="http://www.w3.org/2000/svg"
   xmlns:sodipodi="http://sodipodi.sourceforge.net/DTD/sodipodi-0.dtd"
   xmlns:inkscape="http://www.inkscape.org/namespaces/inkscape"
   inkscape:version="1.0rc1 (09960d6f05, 2020-04-09)"
   sodipodi:docname="folder-github.svg"
   id="svg16"
   version="1"
   height="48"
   width="48">
  <metadata
     id="metadata22">
    <rdf:RDF>
      <cc:Work
         rdf:about="">
        <dc:format>image/svg+xml</dc:format>
        <dc:type
           rdf:resource="http://purl.org/dc/dcmitype/StillImage" />
      </cc:Work>
    </rdf:RDF>
  </metadata>
  <defs
     id="defs20" />
  <sodipodi:namedview
     inkscape:current-layer="svg16"
     inkscape:window-maximized="1"
     inkscape:window-y="22"
     inkscape:window-x="0"
     inkscape:cy="24"
     inkscape:cx="24"
     inkscape:zoom="11.370465"
     showgrid="false"
     id="namedview18"
     inkscape:window-height="723"
     inkscape:window-width="1366"
     inkscape:pageshadow="2"
     inkscape:pageopacity="0"
     guidetolerance="10"
     gridtolerance="10"
     objecttolerance="10"
     borderopacity="1"
     bordercolor="#666666"
     pagecolor="#ffffff" />
  <rect
     id="rect2"
     ry="2"
     rx="2"
     y="17"
     x="4"
     height="26"
     width="40"
     style="opacity:0.2" />
  <path
     id="path4"
     d="M 4,34 C 4,35.108 4.892,36 6,36 H 42 C 43.108,36 44,35.108 44,34 V 12 C 44,10.892 43.108,10 42,10 H 22 V 8 C 22,6.892 21.108,6 20,6 H 6 C 4.892,6 4,6.892 4,8"
     style="fill:#4c566a" />
  <rect
     id="rect6"
     ry="2"
     rx="2"
     y="15"
     x="4"
     height="26"
     width="40"
     style="opacity:0.2" />
  <rect
     id="rect8"
     ry="2"
     rx="2"
     y="13"
     x="6"
     height="16"
     width="36"
     style="fill:#9EA2AA" />
  <rect
     id="rect10"
     ry="2"
     rx="2"
     y="16"
     x="4"
     height="26"
     width="40"
     style="fill:#3F4757" />
  <path
     id="path12"
     d="M 6,6 C 4.892,6 4,6.892 4,8 V 9 C 4,7.892 4.892,7 6,7 H 20 C 21.108,7 22,7.892 22,9 V 8 C 22,6.892 21.108,6 20,6 Z M 22,10 V 11 H 42 C 43.108,11 44,11.892 44,13 V 12 C 44,10.892 43.108,10 42,10 Z"
     style="opacity:0.1;fill:#ffffff" />
  <path
     id="path14"
     d="m 24,21 c -4.432,0 -8,3.568 -8,8 0,3.572969 2.319953,6.580128 5.541016,7.613281 v -1.662109 c -2.02505,0.44688 -2.451172,-0.890625 -2.451172,-0.890625 -0.33119,-0.85462 -0.808594,-1.082031 -0.808594,-1.082031 -0.66103,-0.45857 0.04883,-0.451172 0.04883,-0.451172 0.73072,0.05219 1.115234,0.763672 1.115234,0.763672 0.649401,1.13032 1.704391,0.804594 2.119141,0.615234 0.06615,-0.47773 0.255071,-0.805404 0.462891,-0.990234 -1.6165,-0.1867 -3.017578,-1.220416 -3.017578,-4.055016 0,-0.807401 0.586534,-1.867737 1.052234,-2.384438 -0.0751,-0.1871 -0.326088,-1.339321 0.07031,-2.357421 0,0 0.03819,-0.01202 0.117188,-0.01563 0.2369,-0.0111 0.7698,0.43835 1.8125,1.15625 0.629544,-0.180863 1.435033,-0.265432 1.938,-0.269532 0.567132,-0.0047 1.223838,0.09289 1.815614,0.269532 1.043,-0.7179 1.709313,-1.169203 1.945313,-1.158204 h 0.002 c 0.0789,0.0037 0.117187,0.01563 0.117188,0.01563 0.39732,1.01806 0.146905,2.172275 0.07227,2.359374 C 28.418904,26.993362 29,28.053598 29,28.861 c 0,2.84182 -1.700866,3.866146 -3.322266,4.049156 0.261006,0.2284 0.326172,0.681284 0.326172,1.371094 0,0.83312 -0.0021,1.37464 -0.0039,1.71875 v 0.740234 C 29.456574,35.855553 32,32.739916 32,29 32,24.568 28.432,21 24,21 Z"
     style="fill:#9ea2aa;fill-opacity:1" />
</svg>
