<?xml version="1.0" encoding="UTF-8" standalone="no"?>
<svg
   xmlns:dc="http://purl.org/dc/elements/1.1/"
   xmlns:cc="http://creativecommons.org/ns#"
   xmlns:rdf="http://www.w3.org/1999/02/22-rdf-syntax-ns#"
   xmlns:svg="http://www.w3.org/2000/svg"
   xmlns="http://www.w3.org/2000/svg"
   xmlns:sodipodi="http://sodipodi.sourceforge.net/DTD/sodipodi-0.dtd"
   xmlns:inkscape="http://www.inkscape.org/namespaces/inkscape"
   inkscape:version="1.0rc1 (09960d6f05, 2020-04-09)"
   sodipodi:docname="folder-tar.svg"
   id="svg18"
   version="1"
   height="48"
   width="48">
  <metadata
     id="metadata24">
    <rdf:RDF>
      <cc:Work
         rdf:about="">
        <dc:format>image/svg+xml</dc:format>
        <dc:type
           rdf:resource="http://purl.org/dc/dcmitype/StillImage" />
      </cc:Work>
    </rdf:RDF>
  </metadata>
  <defs
     id="defs22" />
  <sodipodi:namedview
     inkscape:current-layer="svg18"
     inkscape:window-maximized="1"
     inkscape:window-y="22"
     inkscape:window-x="0"
     inkscape:cy="24"
     inkscape:cx="24"
     inkscape:zoom="11.370465"
     showgrid="false"
     id="namedview20"
     inkscape:window-height="723"
     inkscape:window-width="1366"
     inkscape:pageshadow="2"
     inkscape:pageopacity="0"
     guidetolerance="10"
     gridtolerance="10"
     objecttolerance="10"
     borderopacity="1"
     bordercolor="#666666"
     pagecolor="#ffffff" />
  <rect
     id="rect2"
     ry="2"
     rx="2"
     y="17"
     x="4"
     height="26"
     width="40"
     style="opacity:0.2" />
  <path
     id="path4"
     d="M 4,34 C 4,35.108 4.892,36 6,36 H 42 C 43.108,36 44,35.108 44,34 V 12 C 44,10.892 43.108,10 42,10 H 22 V 8 C 22,6.892 21.108,6 20,6 H 6 C 4.892,6 4,6.892 4,8"
     style="fill:#4c566a" />
  <rect
     id="rect6"
     ry="2"
     rx="2"
     y="15"
     x="4"
     height="26"
     width="40"
     style="opacity:0.2" />
  <rect
     id="rect8"
     ry="2"
     rx="2"
     y="13"
     x="6"
     height="16"
     width="36"
     style="fill:#9EA2AA" />
  <rect
     id="rect10"
     ry="2"
     rx="2"
     y="16"
     x="4"
     height="26"
     width="40"
     style="fill:#3F4757" />
  <path
     id="path12"
     d="M 6,6 C 4.892,6 4,6.892 4,8 V 9 C 4,7.892 4.892,7 6,7 H 20 C 21.108,7 22,7.892 22,9 V 8 C 22,6.892 21.108,6 20,6 Z M 22,10 V 11 H 42 C 43.108,11 44,11.892 44,13 V 12 C 44,10.892 43.108,10 42,10 Z"
     style="opacity:0.1;fill:#ffffff" />
  <path
     id="path14"
     d="M 24 16 L 24 17 L 25 17 L 25 16 L 24 16 z M 24 17 L 23 17 L 23 18 L 24 18 L 24 17 z M 24 18 L 24 19 L 25 19 L 25 18 L 24 18 z M 24 19 L 23 19 L 23 20 L 24 20 L 24 19 z M 24 20 L 24 21 L 25 21 L 25 20 L 24 20 z M 24 21 L 23 21 L 23 22 L 24 22 L 24 21 z M 24 22 L 24 23 L 25 23 L 25 22 L 24 22 z M 24 23 L 23 23 C 22.8439 24.390912 24 24.390912 24 23 z"
     style="fill:#9ea2aa;fill-opacity:1" />
  <path
     id="path16"
     d="m 24,22 c -2.21,0 -4,1.8 -4,4 l 0,8 c 0,2.2 1.79,4 4,4 2.21,0 4,-1.8 4,-4 l 0,-8 c 0,-2.2 -1.79,-4 -4,-4 z m 0,2 c 1.104,0 2,0.8 2,2 0,1 -0.896,2 -2,2 -1.104,0 -2,-1 -2,-2 0,-1.2 0.896,-2 2,-2 z m 0,6 c 1.104,0 2,0.8 2,2 l 0,2 c 0,1 -0.896,2 -2,2 -1.104,0 -2,-1 -2,-2 l 0,-2 c 0,-1.2 0.896,-2 2,-2 z"
     style="fill:#9ea2aa;fill-opacity:1" />
</svg>
