<?xml version="1.0" encoding="UTF-8" standalone="no"?>
<svg
   xmlns:dc="http://purl.org/dc/elements/1.1/"
   xmlns:cc="http://creativecommons.org/ns#"
   xmlns:rdf="http://www.w3.org/1999/02/22-rdf-syntax-ns#"
   xmlns:svg="http://www.w3.org/2000/svg"
   xmlns="http://www.w3.org/2000/svg"
   xmlns:sodipodi="http://sodipodi.sourceforge.net/DTD/sodipodi-0.dtd"
   xmlns:inkscape="http://www.inkscape.org/namespaces/inkscape"
   inkscape:version="1.0rc1 (09960d6f05, 2020-04-09)"
   sodipodi:docname="folder-torrent.svg"
   id="svg16"
   version="1"
   height="48"
   width="48">
  <metadata
     id="metadata22">
    <rdf:RDF>
      <cc:Work
         rdf:about="">
        <dc:format>image/svg+xml</dc:format>
        <dc:type
           rdf:resource="http://purl.org/dc/dcmitype/StillImage" />
      </cc:Work>
    </rdf:RDF>
  </metadata>
  <defs
     id="defs20" />
  <sodipodi:namedview
     inkscape:current-layer="svg16"
     inkscape:window-maximized="1"
     inkscape:window-y="22"
     inkscape:window-x="0"
     inkscape:cy="24"
     inkscape:cx="24"
     inkscape:zoom="11.370465"
     showgrid="false"
     id="namedview18"
     inkscape:window-height="723"
     inkscape:window-width="1366"
     inkscape:pageshadow="2"
     inkscape:pageopacity="0"
     guidetolerance="10"
     gridtolerance="10"
     objecttolerance="10"
     borderopacity="1"
     bordercolor="#666666"
     pagecolor="#ffffff" />
  <rect
     id="rect2"
     ry="2"
     rx="2"
     y="17"
     x="4"
     height="26"
     width="40"
     style="opacity:0.2" />
  <path
     id="path4"
     d="m 4,34 c 0,1.108 0.892,2 2,2 l 36,0 c 1.108,0 2,-0.892 2,-2 l 0,-22 c 0,-1.108 -0.892,-2 -2,-2 L 22,10 22,8 C 22,6.892 21.108,6 20,6 L 6,6 C 4.892,6 4,6.892 4,8"
     style="fill:#4c566a" />
  <rect
     id="rect6"
     ry="2"
     rx="2"
     y="15"
     x="4"
     height="26"
     width="40"
     style="opacity:0.2" />
  <rect
     id="rect8"
     ry="2"
     rx="2"
     y="13"
     x="6"
     height="16"
     width="36"
     style="fill:#9EA2AA" />
  <rect
     id="rect10"
     ry="2"
     rx="2"
     y="16"
     x="4"
     height="26"
     width="40"
     style="fill:#3F4757" />
  <path
     id="path12"
     d="M 6,6 C 4.892,6 4,6.892 4,8 L 4,9 C 4,7.892 4.892,7 6,7 l 14,0 c 1.108,0 2,0.892 2,2 L 22,8 C 22,6.892 21.108,6 20,6 Z m 16,4 0,1 20,0 c 1.108,0 2,0.892 2,2 l 0,-1 c 0,-1.108 -0.892,-2 -2,-2 z"
     style="opacity:0.1;fill:#ffffff" />
  <path
     id="path14"
     d="M 26 19 C 20.477153 19 16 23.477153 16 29 C 16 34.522847 20.477153 39 26 39 L 44 39 L 44 37 L 26 37 C 21.581722 37 18 33.418278 18 29 C 18 24.581722 21.581722 21 26 21 L 26 19 z M 26 22 C 22.134007 22 19 25.134007 19 29 C 19 32.865993 22.134007 36 26 36 L 44 36 L 44 34 L 26 34 C 23.238576 34 21 31.761424 21 29 C 21 26.238576 23.238576 24 26 24 C 26.688467 24.000788 27.369353 24.143747 28 24.419922 L 28 22.298828 C 27.351311 22.102941 26.677616 22.002281 26 22 z M 26 25 C 23.790861 25 22 26.790861 22 29 C 22 31.209139 23.790861 33 26 33 L 44 33 L 44 31 L 26 31 C 24.895431 31 24 30.104569 24 29 C 24 27.895431 24.895431 27 26 27 C 26.713268 27.0013 27.371883 27.38229 27.728516 28 L 29.867188 28 C 29.411731 26.236014 27.821835 25.00264 26 25 z"
     style="fill:#9ea2aa;fill-opacity:1" />
</svg>
