<?xml version="1.0" encoding="UTF-8" standalone="no"?>
<svg
   xmlns:dc="http://purl.org/dc/elements/1.1/"
   xmlns:cc="http://creativecommons.org/ns#"
   xmlns:rdf="http://www.w3.org/1999/02/22-rdf-syntax-ns#"
   xmlns:svg="http://www.w3.org/2000/svg"
   xmlns="http://www.w3.org/2000/svg"
   xmlns:sodipodi="http://sodipodi.sourceforge.net/DTD/sodipodi-0.dtd"
   xmlns:inkscape="http://www.inkscape.org/namespaces/inkscape"
   inkscape:version="1.0rc1 (09960d6f05, 2020-04-09)"
   sodipodi:docname="folder-steam.svg"
   id="svg16"
   version="1"
   height="48"
   width="48">
  <metadata
     id="metadata22">
    <rdf:RDF>
      <cc:Work
         rdf:about="">
        <dc:format>image/svg+xml</dc:format>
        <dc:type
           rdf:resource="http://purl.org/dc/dcmitype/StillImage" />
      </cc:Work>
    </rdf:RDF>
  </metadata>
  <defs
     id="defs20" />
  <sodipodi:namedview
     inkscape:current-layer="svg16"
     inkscape:window-maximized="1"
     inkscape:window-y="22"
     inkscape:window-x="0"
     inkscape:cy="24"
     inkscape:cx="24"
     inkscape:zoom="11.370465"
     showgrid="false"
     id="namedview18"
     inkscape:window-height="723"
     inkscape:window-width="1366"
     inkscape:pageshadow="2"
     inkscape:pageopacity="0"
     guidetolerance="10"
     gridtolerance="10"
     objecttolerance="10"
     borderopacity="1"
     bordercolor="#666666"
     pagecolor="#ffffff" />
  <rect
     id="rect2"
     ry="2"
     rx="2"
     y="17"
     x="4"
     height="26"
     width="40"
     style="opacity:0.2" />
  <path
     id="path4"
     d="M 4,34 C 4,35.108 4.892,36 6,36 H 42 C 43.108,36 44,35.108 44,34 V 12 C 44,10.892 43.108,10 42,10 H 22 V 8 C 22,6.892 21.108,6 20,6 H 6 C 4.892,6 4,6.892 4,8"
     style="fill:#4c566a" />
  <rect
     id="rect6"
     ry="2"
     rx="2"
     y="15"
     x="4"
     height="26"
     width="40"
     style="opacity:0.2" />
  <rect
     id="rect8"
     ry="2"
     rx="2"
     y="13"
     x="6"
     height="16"
     width="36"
     style="fill:#9EA2AA" />
  <rect
     id="rect10"
     ry="2"
     rx="2"
     y="16"
     x="4"
     height="26"
     width="40"
     style="fill:#3F4757" />
  <path
     id="path12"
     d="M 6,6 C 4.892,6 4,6.892 4,8 V 9 C 4,7.892 4.892,7 6,7 H 20 C 21.108,7 22,7.892 22,9 V 8 C 22,6.892 21.108,6 20,6 Z M 22,10 V 11 H 42 C 43.108,11 44,11.892 44,13 V 12 C 44,10.892 43.108,10 42,10 Z"
     style="opacity:0.1;fill:#ffffff" />
  <path
     id="path14"
     d="M 14,30.623 20.004,33.084 C 20.049,34.706 21.377,35.998 23,36 24.657,36 26.006,34.598 26,33 L 30,30 C 32.227,30 34,28.209 34,26 34,23.791 32.209,22 30,22 27.791,22 25.999,23.772 26,26 L 23,30 C 22.456,30 21.918,30.152 21.451,30.436 L 14,27.377 M 30,23 C 31.657,23 33,24.343 33,26 33,27.657 31.657,29 30,29 28.344,29 27.031,27.365 27,26 27,24.343 28.343,23 30,23 Z M 30,24 C 28.895,24 28,24.895 28,26 28,27.105 28.895,28 30,28 31.105,28 32,27.105 32,26 32,24.895 31.105,24 30,24 Z M 23,31 C 24.105,31 25,31.895 25,33 25,34.105 24.105,35 23,35 22.096,35 21.304,34.394 21.068,33.521 L 21.961,33.887 C 22.73,34.202 23.603,33.837 23.918,33.068 24.233,32.299 23.869,31.426 23.1,31.111 L 22.846,31.008 C 22.897,31.003 22.949,31.001 23,31 Z"
     style="fill:#9ea2aa;fill-opacity:1" />
</svg>
