<?xml version="1.0" encoding="UTF-8" standalone="no"?>
<svg
   xmlns:dc="http://purl.org/dc/elements/1.1/"
   xmlns:cc="http://creativecommons.org/ns#"
   xmlns:rdf="http://www.w3.org/1999/02/22-rdf-syntax-ns#"
   xmlns:svg="http://www.w3.org/2000/svg"
   xmlns="http://www.w3.org/2000/svg"
   xmlns:sodipodi="http://sodipodi.sourceforge.net/DTD/sodipodi-0.dtd"
   xmlns:inkscape="http://www.inkscape.org/namespaces/inkscape"
   inkscape:version="1.0rc1 (09960d6f05, 2020-04-09)"
   sodipodi:docname="folder-publicshare-open.svg"
   id="svg16"
   version="1"
   height="48"
   width="48">
  <metadata
     id="metadata22">
    <rdf:RDF>
      <cc:Work
         rdf:about="">
        <dc:format>image/svg+xml</dc:format>
        <dc:type
           rdf:resource="http://purl.org/dc/dcmitype/StillImage" />
      </cc:Work>
    </rdf:RDF>
  </metadata>
  <defs
     id="defs20" />
  <sodipodi:namedview
     inkscape:current-layer="svg16"
     inkscape:window-maximized="1"
     inkscape:window-y="22"
     inkscape:window-x="0"
     inkscape:cy="24"
     inkscape:cx="24"
     inkscape:zoom="11.370465"
     showgrid="false"
     id="namedview18"
     inkscape:window-height="723"
     inkscape:window-width="1366"
     inkscape:pageshadow="2"
     inkscape:pageopacity="0"
     guidetolerance="10"
     gridtolerance="10"
     objecttolerance="10"
     borderopacity="1"
     bordercolor="#666666"
     pagecolor="#ffffff" />
  <rect
     id="rect2"
     ry="2"
     rx="2"
     y="17"
     x="4"
     height="26"
     width="40"
     style="opacity:0.2" />
  <path
     id="path4"
     d="M 4,34 C 4,35.108 4.892,36 6,36 H 42 C 43.108,36 44,35.108 44,34 V 12 C 44,10.892 43.108,10 42,10 H 22 V 8 C 22,6.892 21.108,6 20,6 H 6 C 4.892,6 4,6.892 4,8"
     style="fill:#4c566a" />
  <rect
     id="rect6"
     ry="2"
     rx="2"
     y="19"
     x="4"
     height="22"
     width="40"
     style="opacity:0.2" />
  <rect
     id="rect8"
     ry="2"
     rx="2"
     y="13"
     x="6"
     height="16"
     width="36"
     style="fill:#9EA2AA" />
  <rect
     id="rect10"
     ry="2"
     rx="2"
     y="20"
     x="4"
     height="22"
     width="40"
     style="fill:#3F4757" />
  <path
     id="path12"
     d="M 6,6 C 4.892,6 4,6.892 4,8 V 9 C 4,7.892 4.892,7 6,7 H 20 C 21.108,7 22,7.892 22,9 V 8 C 22,6.892 21.108,6 20,6 Z M 22,10 V 11 H 42 C 43.108,11 44,11.892 44,13 V 12 C 44,10.892 43.108,10 42,10 Z"
     style="opacity:0.1;fill:#ffffff" />
  <path
     id="path14"
     d="M 20.545,27.452 C 20.499,27.463 20.453,27.481 20.41,27.504 19.98,27.731 19.87,28.44 20.164,29.096 20.401,29.624 20.821,29.95 21.203,29.94 21.49,31.693 22.633,33 23.993,33 H 24.005 C 25.366,33 26.509,31.693 26.796,29.94 27.177,29.95 27.598,29.624 27.835,29.096 28.129,28.44 28.019,27.731 27.589,27.504 27.545,27.481 27.5,27.463 27.454,27.452 27.399,25.535 25.876,24 24,24 22.125,24 20.6,25.535 20.545,27.452 Z M 26.394,33 C 26.105,33.701 25.12,34.227 23.945,34.227 22.775,34.227 21.799,33.708 21.505,33.012 19.037,33.27 17.238,33.902 17.022,34.649 17.019,34.656 17.024,34.665 17.022,34.672 17.015,34.699 17.015,34.723 17.012,34.75 17.011,34.763 17,34.771 17,34.784 V 34.793 36.643 C 17.001,36.84 17.157,37 17.351,37 H 30.65 C 30.844,37 31,36.84 31,36.643 V 34.793 34.771 C 30.998,34.728 30.979,34.691 30.967,34.648 30.746,33.892 28.908,33.252 26.395,33 Z"
     style="fill:#9ea2aa;fill-opacity:1" />
</svg>
