<?xml version="1.0" encoding="UTF-8" standalone="no"?>
<svg
   xmlns:dc="http://purl.org/dc/elements/1.1/"
   xmlns:cc="http://creativecommons.org/ns#"
   xmlns:rdf="http://www.w3.org/1999/02/22-rdf-syntax-ns#"
   xmlns:svg="http://www.w3.org/2000/svg"
   xmlns="http://www.w3.org/2000/svg"
   xmlns:sodipodi="http://sodipodi.sourceforge.net/DTD/sodipodi-0.dtd"
   xmlns:inkscape="http://www.inkscape.org/namespaces/inkscape"
   inkscape:version="1.0rc1 (09960d6f05, 2020-04-09)"
   sodipodi:docname="folder-publicshare.svg"
   id="svg16"
   version="1"
   height="48"
   width="48">
  <metadata
     id="metadata22">
    <rdf:RDF>
      <cc:Work
         rdf:about="">
        <dc:format>image/svg+xml</dc:format>
        <dc:type
           rdf:resource="http://purl.org/dc/dcmitype/StillImage" />
      </cc:Work>
    </rdf:RDF>
  </metadata>
  <defs
     id="defs20" />
  <sodipodi:namedview
     inkscape:current-layer="svg16"
     inkscape:window-maximized="1"
     inkscape:window-y="25"
     inkscape:window-x="0"
     inkscape:cy="24"
     inkscape:cx="24"
     inkscape:zoom="11.167201"
     showgrid="false"
     id="namedview18"
     inkscape:window-height="713"
     inkscape:window-width="1366"
     inkscape:pageshadow="2"
     inkscape:pageopacity="0"
     guidetolerance="10"
     gridtolerance="10"
     objecttolerance="10"
     borderopacity="1"
     bordercolor="#666666"
     pagecolor="#ffffff" />
  <rect
     id="rect2"
     ry="2"
     rx="2"
     y="17"
     x="4"
     height="26"
     width="40"
     style="opacity:0.2" />
  <path
     id="path4"
     d="M 4,34 C 4,35.108 4.892,36 6,36 H 42 C 43.108,36 44,35.108 44,34 V 12 C 44,10.892 43.108,10 42,10 H 22 V 8 C 22,6.892 21.108,6 20,6 H 6 C 4.892,6 4,6.892 4,8"
     style="fill:#4c566a" />
  <rect
     id="rect6"
     ry="2"
     rx="2"
     y="15"
     x="4"
     height="26"
     width="40"
     style="opacity:0.2" />
  <rect
     id="rect8"
     ry="2"
     rx="2"
     y="13"
     x="6"
     height="16"
     width="36"
     style="fill:#9EA2AA" />
  <rect
     id="rect10"
     ry="2"
     rx="2"
     y="16"
     x="4"
     height="26"
     width="40"
     style="fill:#3F4757" />
  <path
     id="path12"
     d="M 6,6 C 4.892,6 4,6.892 4,8 V 9 C 4,7.892 4.892,7 6,7 H 20 C 21.108,7 22,7.892 22,9 V 8 C 22,6.892 21.108,6 20,6 Z M 22,10 V 11 H 42 C 43.108,11 44,11.892 44,13 V 12 C 44,10.892 43.108,10 42,10 Z"
     style="opacity:0.1;fill:#ffffff" />
  <path
     id="path14"
     d="M 20.545,25.452 C 20.499,25.463 20.453,25.481 20.41,25.504 19.98,25.731 19.87,26.44 20.164,27.096 20.401,27.624 20.821,27.95 21.203,27.94 21.49,29.693 22.633,31 23.993,31 H 24.005 C 25.366,31 26.509,29.693 26.796,27.94 27.177,27.95 27.598,27.624 27.835,27.096 28.129,26.44 28.019,25.731 27.589,25.504 27.545,25.481 27.5,25.463 27.454,25.452 27.399,23.535 25.876,22 24,22 22.125,22 20.6,23.535 20.545,25.452 Z M 26.394,31 C 26.105,31.701 25.12,32.227 23.945,32.227 22.775,32.227 21.799,31.708 21.505,31.012 19.037,31.27 17.238,31.902 17.022,32.649 17.019,32.656 17.024,32.665 17.022,32.672 17.015,32.699 17.015,32.723 17.012,32.75 17.011,32.763 17,32.771 17,32.784 V 32.793 34.643 C 17.001,34.84 17.157,35 17.351,35 H 30.65 C 30.844,35 31,34.84 31,34.643 V 32.793 32.771 C 30.998,32.728 30.979,32.691 30.967,32.648 30.746,31.892 28.908,31.252 26.395,31 Z"
     style="fill:#9ea2aa;fill-opacity:1" />
</svg>
